<svg xmlns="http://www.w3.org/2000/svg" viewBox="0 0 752.82 324"><defs><style>.cls-1{fill:#fff;opacity:0.8;}</style></defs><g id="Layer_2" data-name="Layer 2"><g id="Layer_2-2" data-name="Layer 2"><path class="cls-1" d="M752.82,260.87c0-17-40.06-32.43-105.21-43.78a69.07,69.07,0,0,0-81.35-86.78,162,162,0,0,0-313.95-15.22,95.28,95.28,0,0,0-142.72,82.65,95.91,95.91,0,0,0,1.77,18.3C42.6,227.48,0,243.34,0,260.87,0,295.73,168.53,324,376.41,324q12.73,0,25.25-.14c1.9.06,3.8.14,5.72.14,3.58,0,7.12-.16,10.64-.39C606.32,320.14,752.82,293.38,752.82,260.87Z"/></g></g></svg>