<svg xmlns="http://www.w3.org/2000/svg" viewBox="0 0 258.31 91.97"><defs><style>.cls-1{fill:#fff;}</style></defs><g id="Layer_2" data-name="Layer 2"><g id="Layer_3" data-name="Layer 3"><path class="cls-1" d="M127,7.2a29.13,29.13,0,0,1-1.2,6.37,33.62,33.62,0,0,0-1.08,5.88,14,14,0,0,0-.06,1.83,5.51,5.51,0,0,0,.22,1.2,1.44,1.44,0,0,0,1.22,1.05,3,3,0,0,0,1.56-.14,1.45,1.45,0,0,0,.89-.95A8.75,8.75,0,0,0,129,20.3c.13-1.22.23-2.43.24-3.66,0-3.42,0-6.85.25-10.27.05-.61.1-1.22.14-1.83a3.84,3.84,0,0,1,.49-1.5,2.75,2.75,0,0,1,1.61-1.4,5.82,5.82,0,0,1,1.06-.31,16.55,16.55,0,0,1,8.2.58,7.89,7.89,0,0,1,.9.39,3.21,3.21,0,0,1,1.78,3A6.87,6.87,0,0,1,143.49,7c-.43,2-.85,3.9-1.34,5.83-1,3.95-2.05,7.89-3.12,11.82a76,76,0,0,0-1.89,9.59,58,58,0,0,0-.54,6.45,11.51,11.51,0,0,1-.21,1.94,2,2,0,0,1-1.57,1.68,14.26,14.26,0,0,1-5.32.51,2.15,2.15,0,0,1-2-1.54,7.43,7.43,0,0,1-.38-2c0-.52,0-1.06-.07-1.58s-.12-1.06-.2-1.58c-.19-1.11-.61-1.71-2.15-1.59a4.84,4.84,0,0,0-1.29.35,2,2,0,0,0-1.38,1.72,13.08,13.08,0,0,0-.13,2.07,35.28,35.28,0,0,1-.43,5.72,6.72,6.72,0,0,1-.78,2.31c-.87,1.48-1.87,2.06-3.8,1.22a4.87,4.87,0,0,1-2.16-1.93,9.6,9.6,0,0,1-1.37-3.51c-.43-2.57-1.3-14.77-1.91-18.22a32.47,32.47,0,0,0-1.1-4.26,41.92,41.92,0,0,1-1.8-9.34,13.41,13.41,0,0,1,.22-3.41A5.15,5.15,0,0,1,111,5.77a22.28,22.28,0,0,1,1.94-1.27,32.55,32.55,0,0,1,6.32-2.9,9.44,9.44,0,0,1,2.52-.48,4.75,4.75,0,0,1,5.07,4.14C126.94,5.9,127,6.56,127,7.2Z"/><path class="cls-1" d="M82.8,69.7c.17-2.2.29-4.39.3-6.6,0-3.26.06-6.52.1-9.78,0-.94,0-1.88.08-2.82a4,4,0,0,1,.22-1.19,2.23,2.23,0,0,1,1.42-1.42,4.48,4.48,0,0,1,1.19-.23,17.41,17.41,0,0,1,5.33.61,4.09,4.09,0,0,1,.79.32,2.38,2.38,0,0,1,1.39,2.61,6.59,6.59,0,0,1-.27,1.06A54.93,54.93,0,0,0,91,61.87a49.87,49.87,0,0,0-.37,6.35c0,2.81,0,5.63,0,8.44a29,29,0,0,1-.75,6.3c-.15.68-.32,1.35-.48,2A12.22,12.22,0,0,1,88,88.47a4.36,4.36,0,0,1-3.32,2,3.91,3.91,0,0,1-3-1.06,7.07,7.07,0,0,1-1.47-1.79A14.21,14.21,0,0,1,78.88,85c-.22-.57-.47-1.13-.71-1.69a.71.71,0,0,0-.41-.44,1.8,1.8,0,0,0-.6,1.16l-.71,2.6a10.14,10.14,0,0,1-1.21,2.66c-1.68,2.67-5.41,2.15-6.85.32a10.16,10.16,0,0,1-1.5-2.79,17.78,17.78,0,0,1-.69-3c-.46-2.61-1-5.21-1.37-7.83-.73-4.55-1.56-9.08-2-13.67-.13-1.34-.24-2.68-.34-4a8.3,8.3,0,0,1,.24-2.67,6.22,6.22,0,0,1,2-3.18A14.29,14.29,0,0,1,69.11,50a36.26,36.26,0,0,1,5.42-1.5,5.58,5.58,0,0,1,2.89.19,3,3,0,0,1,2,1.85,11.42,11.42,0,0,1,.66,2.35,96.73,96.73,0,0,1,1.51,11.39,28,28,0,0,0,.6,4.36c.06.27.09.56.13.84,0,.5-.06,1,.39,1.48A3.32,3.32,0,0,0,82.8,69.7Z"/><path class="cls-1" d="M73.59,19.14c.08,4.36.08,8.72.36,13.08.13,2.11.34,4.22.65,6.32a16.87,16.87,0,0,1,.15,4.26,5.94,5.94,0,0,1-.37,1.55,2.69,2.69,0,0,1-1.91,1.73A14.7,14.7,0,0,1,66.53,46a2.87,2.87,0,0,1-2.32-2.52A21,21,0,0,1,64,40.26a15,15,0,0,0-.22-2.67,4,4,0,0,0-.13-.6,1.14,1.14,0,0,0-1.08-.84,4.63,4.63,0,0,0-2.26.39,1.45,1.45,0,0,0-.94,1.32c0,.65,0,1.3,0,2a26.58,26.58,0,0,1-.26,4.88,14,14,0,0,1-.31,1.43,5.51,5.51,0,0,1-1,1.83c-1.25,1.57-2.82,1.5-4.25.25a6.1,6.1,0,0,1-1.39-2.13,19.18,19.18,0,0,1-1.41-4.8c-.87-4.81-1.75-9.62-2.56-14.44-.43-2.57-.77-5.15-1.11-7.74-.24-1.77-.41-3.56-.63-5.34A12.88,12.88,0,0,1,46.62,10,7,7,0,0,1,49.19,5.8a13.9,13.9,0,0,1,2.56-1.67,29.24,29.24,0,0,1,6.39-2.37,5.61,5.61,0,0,1,1.58-.19,3.85,3.85,0,0,1,3.74,3.78,20.69,20.69,0,0,1-.11,3.05c-.26,3.18-.91,6.29-1.45,9.42a20.11,20.11,0,0,0-.27,2.8,8,8,0,0,0,.15,1.82,1.12,1.12,0,0,0,1.33,1,2.33,2.33,0,0,0,2.09-1.77,9,9,0,0,0,.24-2.43c0-2.24,0-4.48,0-6.73A43.55,43.55,0,0,1,65.91,6a10.54,10.54,0,0,1,.76-2.7,5.84,5.84,0,0,1,1.66-2.24A2.8,2.8,0,0,1,71.64.8a4.25,4.25,0,0,1,2.29,3.91c0,2,0,4-.11,6C73.72,13.52,73.55,16.32,73.59,19.14Z"/><path class="cls-1" d="M194,17.19a41.07,41.07,0,0,1-1.22,9A18.29,18.29,0,0,1,190,31.88a10.08,10.08,0,0,1-3.16,2.83,26.58,26.58,0,0,1-3.51,1.73c-.6.25-1.18.54-1.76.84a1.39,1.39,0,0,0-.79,1.29c0,.57,0,1.14.07,1.71a17.13,17.13,0,0,1-.11,3.65,3,3,0,0,1-2.06,2.63,6,6,0,0,1-2.75.43,9.69,9.69,0,0,1-2.5-.53,4.64,4.64,0,0,1-3-3.14,29.5,29.5,0,0,1-.88-3.94c-.38-2.37-.93-4.71-1.36-7.08-1-5.29-1.91-10.58-2.8-15.88a53.75,53.75,0,0,1-.63-6.94A9.15,9.15,0,0,1,165,6.93a5.53,5.53,0,0,1,2.72-3.59,12,12,0,0,1,4-1.37,34.8,34.8,0,0,1,8.52-.51,18.17,18.17,0,0,1,4.34.67,11.92,11.92,0,0,1,8.12,7.67A20.89,20.89,0,0,1,194,17.19Zm-16,7.15h0c0,1.43.06,2.85.1,4.28a4.52,4.52,0,0,0,.35,1.78.56.56,0,0,0,.8.33,4.73,4.73,0,0,0,2-1.56,12.1,12.1,0,0,0,2.41-7.66,5.16,5.16,0,0,0-1.66-3.82,2,2,0,0,0-3,0,3.19,3.19,0,0,0-1.08,2.61C177.93,21.66,177.91,23,177.91,24.34Z"/><path class="cls-1" d="M222.29,13.48a13.16,13.16,0,0,1,.33-3.07,7.47,7.47,0,0,1,1.12-2.69A16.2,16.2,0,0,1,230,2.41a4.44,4.44,0,0,1,2.15-.4,2.7,2.7,0,0,1,2.65,2.11,80.79,80.79,0,0,1,2.2,11c.08.73.19,1.45.3,2.18a6.64,6.64,0,0,0,.25,1.07.51.51,0,0,0,.31.34c.14,0,.28-.14.31-.31a12.14,12.14,0,0,0,.27-1.44,69.58,69.58,0,0,1,2.48-13.19c.17-.59.36-1.17.58-1.74a3.36,3.36,0,0,1,3.8-2,8.54,8.54,0,0,1,1.85.61,61.26,61.26,0,0,1,8.18,4.87,12.43,12.43,0,0,1,2,2,3.72,3.72,0,0,1,.69,3.89,10.15,10.15,0,0,1-.86,1.75,92.7,92.7,0,0,1-5.08,7.78c-1.68,2.25-3.2,4.62-4.7,7-1,1.51-1.94,3-2.89,4.53q-.61,1-1.17,2a6.78,6.78,0,0,0-.73,2.69c-.14,1.75-.21,3.5-.19,5.25a7.62,7.62,0,0,1-.2,2.07,2.09,2.09,0,0,1-1.5,1.61,6.78,6.78,0,0,1-1.79.36,13.88,13.88,0,0,1-3.28-.25,2.48,2.48,0,0,1-2.21-2.13,14.16,14.16,0,0,1-.2-2c-.06-1.5-.08-3-.16-4.52a17.78,17.78,0,0,0-.27-2.18,6.78,6.78,0,0,0-1-2.47c-1.64-2.53-3.27-5.06-4.93-7.59a40.4,40.4,0,0,1-3.46-6.45A13,13,0,0,1,222.29,13.48Z"/><path class="cls-1" d="M221.93,17.25a34.88,34.88,0,0,1-1.39,8.68,25.24,25.24,0,0,1-1.94,4.87,10.8,10.8,0,0,1-4.86,4.82,18.94,18.94,0,0,1-3.17,1.28c-.27.08-.54.18-.82.24a2.23,2.23,0,0,0-1.8,1.93,10,10,0,0,0-.17,1.82c0,1.1,0,2.2,0,3.3,0,.53-.06,1.06-.12,1.58a2.64,2.64,0,0,1-2,2.37,13.73,13.73,0,0,1-2,.5,5.26,5.26,0,0,1-3.32-.57,2.68,2.68,0,0,1-1.38-1.64,9.49,9.49,0,0,1-.32-1.3c-.8-4.86-1.53-9.74-2-14.64-.33-3.2-.73-6.4-1.08-9.59s-.69-6.49-1-9.73a12.87,12.87,0,0,1,.22-4,5.39,5.39,0,0,1,3.1-4,19.31,19.31,0,0,1,6.35-1.66,27.17,27.17,0,0,1,6-.08,13.55,13.55,0,0,1,7.58,3.06A10.4,10.4,0,0,1,219.83,7a14.42,14.42,0,0,1,1.92,5.88A18.81,18.81,0,0,1,221.93,17.25Zm-17.61,5.87h.13c0,.65,0,1.3,0,1.95A27.33,27.33,0,0,0,205,29.3a7,7,0,0,0,.4,1.28.65.65,0,0,0,.91.36,2.88,2.88,0,0,0,1-.7,10.26,10.26,0,0,0,2.24-3.46,14.3,14.3,0,0,0,1-5.13,9.05,9.05,0,0,0-.75-3.8,2,2,0,0,0-2.38-1.25,2.88,2.88,0,0,0-1.21.54,4.27,4.27,0,0,0-1.85,3.66Z"/><path class="cls-1" d="M153.24,1.38c.53,0,1.06,0,1.59.08a5.92,5.92,0,0,1,4.63,2.8,8.34,8.34,0,0,1,.93,2.12,67.53,67.53,0,0,1,2.05,8.42c.67,4,1.52,8,2.46,12,.48,2.06.87,4.14,1.35,6.21.41,1.78.91,3.55,1.35,5.33a44,44,0,0,1,1,6.15,7.58,7.58,0,0,1-.11,2.07,1.75,1.75,0,0,1-1,1.4,9.53,9.53,0,0,1-1.25.49,16.27,16.27,0,0,1-4.11.54,2.63,2.63,0,0,1-2.56-1.55,11,11,0,0,1-.84-2.28c-.31-1.15-.62-2.28-.94-3.42-.1-.35-.24-.69-.35-1a2,2,0,0,0-1.87-1.51,18.37,18.37,0,0,0-4.74.25.65.65,0,0,0-.52.47c-.14.46-.27.94-.4,1.41a9.57,9.57,0,0,1-1.15,2.81,2.4,2.4,0,0,1-2.9,1.24,16.33,16.33,0,0,1-4.36-1.55,8.82,8.82,0,0,1-1.88-1.34A3.83,3.83,0,0,1,138.27,39a25,25,0,0,1,.76-3.95c.78-2.7,1.58-5.4,2.37-8.09,2-6.88,4.07-13.75,6.23-20.58.2-.62.35-1.26.52-1.88A4.75,4.75,0,0,1,149,2.8a3.46,3.46,0,0,1,2.63-1.35c.53,0,1.06,0,1.59,0Zm.44,31v-.06c.65,0,1.3,0,1.95,0s.78-.24.77-.84a4.43,4.43,0,0,0-.09-.72,23.18,23.18,0,0,0-2.39-6.12,2.43,2.43,0,0,0-.35-.49,1.61,1.61,0,0,0-.28-.24.31.31,0,0,0-.43.08,2.51,2.51,0,0,0-.28.54c-.67,1.75-1.35,3.49-1.87,5.29a9.82,9.82,0,0,0-.31,1.3.85.85,0,0,0,.72,1.08,4.57,4.57,0,0,0,.73.1Z"/><path class="cls-1" d="M75.13,15.24A69.47,69.47,0,0,1,75.48,8a9.79,9.79,0,0,1,1.39-4.14,4.77,4.77,0,0,1,2.28-1.95,12.12,12.12,0,0,1,5.38-1c1.14,0,2.27.19,3.41.3,3,.31,6,1,9,1.44.2,0,.4.1.6.15a4.25,4.25,0,0,1,3.33,3.21,12,12,0,0,1,.38,3.76,42.45,42.45,0,0,1-.64,6.94,10.32,10.32,0,0,1-.5,1.89,2.8,2.8,0,0,1-2.82,1.93,17.81,17.81,0,0,1-3.64-.41c-.84-.16-1.67-.36-2.52-.51a11.9,11.9,0,0,0-1.58-.15,1.92,1.92,0,0,0-.71.11A1.4,1.4,0,0,0,87.83,21,1.63,1.63,0,0,0,89,22.57a6,6,0,0,0,1.33.16,6,6,0,0,1,1.33.16,1.5,1.5,0,0,1,1.09,1.05,4.27,4.27,0,0,1,.13.48,20.56,20.56,0,0,1,.28,4.5,4.31,4.31,0,0,1-.34,1.55,1.67,1.67,0,0,1-1.59,1.13l-2.08,0a6.5,6.5,0,0,0-1.46.12.65.65,0,0,0-.52.6,2.62,2.62,0,0,0,2.43,2.94,5.62,5.62,0,0,0,1.57-.22c.66-.18,1.35-.31,2-.45a3.39,3.39,0,0,1,1.45.08,2.27,2.27,0,0,1,1.86,1.75,15.08,15.08,0,0,1,0,6.31,2.15,2.15,0,0,1-1.31,1.52,7.06,7.06,0,0,1-3.45.63c-2.28-.14-4.55-.37-6.81-.73-1.25-.2-2.5-.33-3.73-.63l-.83-.23a3.5,3.5,0,0,1-2.5-2.45,16.83,16.83,0,0,1-.64-3q-.44-3.29-.84-6.55c-.21-1.74-.45-3.48-.58-5.23-.24-3.05-.59-6.09-.67-9.15C75.12,16.38,75.13,15.81,75.13,15.24Z"/><path class="cls-1" d="M23.54,30.06c0-1.43.07-3.5.17-5.58a26,26,0,0,0-.38-6.82c0-.15-.07-.32-.11-.47s-.26-.38-.56-.26c-1.25.5-2.5,1-3.74,1.51a33.18,33.18,0,0,1-4,1.45l-.34.11c-1.79.45-2.74,0-3.6-1.64a7.92,7.92,0,0,1-.81-2.68A20.66,20.66,0,0,1,11.44,5.25a7.59,7.59,0,0,1,.81-1.51,4.93,4.93,0,0,1,3.09-2,9.45,9.45,0,0,1,2.06-.26c2.4,0,4.81,0,7.21.11,1.3.06,2.61.11,3.91.14,1.92.05,3.82.23,5.74.36,2.07.14,4.13.41,6.2.58a5.45,5.45,0,0,1,5,3.88,6.72,6.72,0,0,1,.45,3.71A3.58,3.58,0,0,1,43.57,13a11.89,11.89,0,0,1-3.22.65l-2.8.28h-.12c-2.06.43-2.21.76-2.33,2.54-.15,2.16-.18,4.32-.27,6.48-.16,4-.35,7.89-.47,11.85-.08,2.93-.13,5.86-.32,8.79,0,.57-.1,1.14-.18,1.7a1.59,1.59,0,0,1-1.11,1.34,12,12,0,0,1-1.17.33,11.15,11.15,0,0,1-3.41.23,4.16,4.16,0,0,1-3.87-3.34,17.09,17.09,0,0,1-.47-3.26C23.68,37.31,23.53,34,23.54,30.06Z"/><path class="cls-1" d="M140.12,48.41h1.71a6.8,6.8,0,0,1,6.54,5,10.27,10.27,0,0,1,.5,2.64,36.86,36.86,0,0,1-.53,8.52,8.78,8.78,0,0,1-1.18,3.2,2.08,2.08,0,0,1-2.56,1.15c-1.12-.21-2.23-.49-3.34-.75a7.18,7.18,0,0,0-2.07-.15,4.46,4.46,0,0,0-4,2.78,5.28,5.28,0,0,0-.42,1.52,8.05,8.05,0,0,0,1.67,6.2,6.68,6.68,0,0,0,2.77,2,25.09,25.09,0,0,0,4.08,1.28,15.93,15.93,0,0,1,1.77.47,1.89,1.89,0,0,1,1.37,1.94,15.93,15.93,0,0,1-.27,3.16,4.36,4.36,0,0,1-3.24,3.47,9.34,9.34,0,0,1-3.53.2A22.63,22.63,0,0,1,131,88.51a13.73,13.73,0,0,1-3.26-2.35,18.79,18.79,0,0,1-5-8,24.11,24.11,0,0,1-1.08-10.26,36.25,36.25,0,0,1,1.52-7.28,19.67,19.67,0,0,1,2.76-5.42,16.25,16.25,0,0,1,8.42-6A15.45,15.45,0,0,1,140.12,48.41Z"/><path class="cls-1" d="M174.32,85.46a14.12,14.12,0,0,1,.11,3.18c0,.28-.06.57-.12.85a2,2,0,0,1-1.84,1.82,5.34,5.34,0,0,1-2.42-.11,3.19,3.19,0,0,1-2.26-2.06,15.07,15.07,0,0,1-.75-3.45c-.32-2.42-.64-4.85-.88-7.28-.32-3.24-.58-6.49-.85-9.74-.23-2.8-.44-5.6-.65-8.41-.08-1.13-.14-2.27-.2-3.41,0-.33,0-.65,0-1a5.25,5.25,0,0,1,3-4.69,13.34,13.34,0,0,1,4.64-1.48,22,22,0,0,1,9.31.77,10.45,10.45,0,0,1,5.56,4.2,14.81,14.81,0,0,1,2.52,7.93,28.83,28.83,0,0,1-.72,7.52A16.08,16.08,0,0,1,183,79.33l-.29.23a1.86,1.86,0,0,0-.78,2.54,9.78,9.78,0,0,0,1,2c.36.63.73,1.26,1.09,1.9a4.08,4.08,0,0,1,.47,1.26,1.55,1.55,0,0,1-.92,1.91,8.28,8.28,0,0,1-3,.92,7.1,7.1,0,0,1-1.22,0A1.93,1.93,0,0,1,177.63,89a12.31,12.31,0,0,1-.53-1.23c-.52-1.28-1-2.57-1.55-3.85a5,5,0,0,0-.9-1.59.26.26,0,0,0-.21-.05.24.24,0,0,0-.12.17C174.31,83.43,174.32,84.45,174.32,85.46Zm4.46-16.16a5.42,5.42,0,0,0-.6-2.82A3,3,0,0,0,176,64.82a2,2,0,0,0-2.42,1.75,16,16,0,0,0-.15,2.19q0,3,.16,6c0,.93.17,1.86.27,2.79a1.06,1.06,0,0,0,.16.45.41.41,0,0,0,.3.14.89.89,0,0,0,.65-.29,14.52,14.52,0,0,0,1-1.19,15.22,15.22,0,0,0,2.54-5.76A7.59,7.59,0,0,0,178.78,69.3Z"/><path class="cls-1" d="M61.73,68.22A88.28,88.28,0,0,1,61,79.5a35.71,35.71,0,0,1-1.48,6.29A10.62,10.62,0,0,1,58.49,88a6.58,6.58,0,0,1-5.32,3.25A13.51,13.51,0,0,1,44.23,89a9,9,0,0,1-3.51-4.43,34.61,34.61,0,0,1-2-9c-.28-3.57-.5-7.15-.44-10.74A31.94,31.94,0,0,1,39,58.45a14.07,14.07,0,0,1,.91-2.65,7.38,7.38,0,0,1,2.33-2.94c.78-.59,1.6-1.11,2.43-1.63a3.68,3.68,0,0,1,2-.47,7.85,7.85,0,0,1,2.76.47,11.06,11.06,0,0,0,4.8.68,18,18,0,0,1,2.08,0,4.51,4.51,0,0,1,4.53,3.85,21.92,21.92,0,0,1,.37,2.41c.13,1.42.23,2.85.31,4.27.06,1,.07,2,.11,3S61.69,67.43,61.73,68.22ZM47.28,74a30.87,30.87,0,0,0,1,7.85,6.9,6.9,0,0,0,1.19,2.65,3.65,3.65,0,0,0,.86.85,1,1,0,0,0,1.34-.1A3.52,3.52,0,0,0,52.5,84a15.1,15.1,0,0,0,.92-2.78A37.3,37.3,0,0,0,54.29,73a9.26,9.26,0,0,0-.12-1.58,6.48,6.48,0,0,0-1.79-3.66,4,4,0,0,0-.85-.69,2.21,2.21,0,0,0-2.62.16,3.76,3.76,0,0,0-1.36,2.24A18.59,18.59,0,0,0,47.28,74Z"/><path class="cls-1" d="M13.9,83.08a13.45,13.45,0,0,0,3.49-1.94c.45-.34.91-.68,1.39-1a2.42,2.42,0,0,1,1.51-.4,1.44,1.44,0,0,1,1.39,1.16,2,2,0,0,1,.08.35A47.74,47.74,0,0,1,22.09,87c0,.53-.13,1.05-.2,1.58a2.32,2.32,0,0,1-1.64,1.94,16.92,16.92,0,0,1-4.28,1c-1.66.17-3.32.31-5,.45a10.51,10.51,0,0,1-2.8-.11,4.25,4.25,0,0,1-2.87-1.9,9.39,9.39,0,0,1-1.11-2.3A35.84,35.84,0,0,1,3,82.49c-.71-4-1.16-8-1.76-12C.78,67.34.43,64.14.17,60.93a30.58,30.58,0,0,1-.11-4.88,15.77,15.77,0,0,1,.32-2.17,6.43,6.43,0,0,1,2.83-4.13A12.16,12.16,0,0,1,4.46,49a55.73,55.73,0,0,1,7.12-2.92,17.27,17.27,0,0,1,3.36-.6,3.89,3.89,0,0,1,4.19,4.31,19.84,19.84,0,0,1-.34,2.42c-.44,2.36-.93,4.71-1.35,7.08-.56,3.16-1,6.35-1.68,9.5S14.52,74.94,13.91,78a18.4,18.4,0,0,0-.37,3.77A1.59,1.59,0,0,0,13.9,83.08Z"/><path class="cls-1" d="M190.29,70.9a23.41,23.41,0,0,1,4-13.24,16,16,0,0,1,6.5-5.77A18.54,18.54,0,0,1,206,50a10.53,10.53,0,0,1,6,.67,4.6,4.6,0,0,1,3,3.86,19.86,19.86,0,0,1,.16,4.75c-.17,1.5-.12,3-.37,4.51-.15.92-.29,1.84-.48,2.76a4,4,0,0,1-.83,1.75,1.85,1.85,0,0,1-2.27.69c-.69-.26-1.35-.56-2-.85a8.43,8.43,0,0,0-2.2-.7,3.93,3.93,0,0,0-4.32,2.1,7,7,0,0,0-.4,6.68,7.5,7.5,0,0,0,2.87,3.09,11.51,11.51,0,0,0,4.4,1.74c1.73.25,3.46.55,5.19.82a5.71,5.71,0,0,1,.72.13,1.55,1.55,0,0,1,1.14,1.16,15,15,0,0,1,.37,5.34,3.46,3.46,0,0,1-3.17,3,14.55,14.55,0,0,1-3.9-.15A31.81,31.81,0,0,1,203.64,90a19.5,19.5,0,0,1-9.1-6.34,20.13,20.13,0,0,1-3.79-8.12A16.82,16.82,0,0,1,190.29,70.9Z"/><path class="cls-1" d="M234.65,53.59a33.79,33.79,0,0,1-.7,5.58c-.75,4.33-1.53,8.66-2.25,13-.39,2.38-.68,4.76-1,7.15a14.13,14.13,0,0,0-.08,1.46.48.48,0,0,0,.64.52,11.51,11.51,0,0,0,1.65-.46,10.83,10.83,0,0,1,2.24-.57c1-.16,1.45.16,1.61,1.18.2,1.24.37,2.5.56,3.74a7.07,7.07,0,0,1,0,2,2.43,2.43,0,0,1-1.37,1.91,6.28,6.28,0,0,1-1,.43A52.33,52.33,0,0,1,225,91.67a6.2,6.2,0,0,1-1.22,0,4.19,4.19,0,0,1-4-2.76,20.9,20.9,0,0,1-1.19-5c-.27-2.07-.39-4.14-.51-6.22-.06-1-.18-2.11-.27-3.16-.36-4.19-.66-8.37-1.13-12.55-.17-1.53-.22-3.08-.3-4.63a6.92,6.92,0,0,1,.12-1.7,4.75,4.75,0,0,1,1.2-2.37,3.14,3.14,0,0,1,.52-.51c3.06-2.26,6.21-4.34,10-5.28a5.6,5.6,0,0,1,4,.42,3.82,3.82,0,0,1,2,2.47A12.45,12.45,0,0,1,234.65,53.59Z"/><path class="cls-1" d="M115,57.59a30.93,30.93,0,0,1-.86,6.28,10.6,10.6,0,0,1-1.06,2.72,4.36,4.36,0,0,1-.65.88,1.53,1.53,0,0,1-1.68.42,15.06,15.06,0,0,1-2.55-1.17,5.74,5.74,0,0,0-2-.77,3.13,3.13,0,0,0-2.21.51,1.85,1.85,0,0,0-.63,2.57,4,4,0,0,0,1,1.19,10.63,10.63,0,0,0,2,1.23,19.39,19.39,0,0,1,2.55,1.44,6.34,6.34,0,0,1,2.7,7,18.85,18.85,0,0,1-1.89,4.76,22.9,22.9,0,0,1-3.75,5,8.7,8.7,0,0,1-2.35,1.74,5.65,5.65,0,0,1-6.23-1.06A2.66,2.66,0,0,1,96.8,87a10.37,10.37,0,0,1,.87-1.32,15.81,15.81,0,0,0,1.47-2.25,5.84,5.84,0,0,0,.63-3.67A3.43,3.43,0,0,0,99,78.09a10.08,10.08,0,0,0-1.41-1.36c-.57-.46-1.14-.92-1.7-1.39a9.3,9.3,0,0,1-2.78-3.81A15.34,15.34,0,0,1,92,63.64c.23-1.62.41-3.23.79-4.82a11.92,11.92,0,0,1,6.79-8.3,16.46,16.46,0,0,1,9.6-1.69,11.58,11.58,0,0,1,1.92.29A4.69,4.69,0,0,1,114.27,52a9.85,9.85,0,0,1,.79,4C115.05,56.53,115,57.06,115,57.59Z"/><path class="cls-1" d="M257.31,57.26c-.18,2.3-.16,4.14-.46,6a9.4,9.4,0,0,1-.5,1.89,2.11,2.11,0,0,1-1.51,1.3,6.49,6.49,0,0,1-1.7.15,33.83,33.83,0,0,0-4.27.21c-.28,0-.57.07-.85.13-.47.11-.62.29-.64.75a2.41,2.41,0,0,0,.24,1.18,1.09,1.09,0,0,0,.94.68l2.44.2a5.84,5.84,0,0,1,1.55.31,1.9,1.9,0,0,1,1.37,1.57,11,11,0,0,1,0,4.13,3.48,3.48,0,0,1-.45,1.13,2,2,0,0,1-1.45,1,11.53,11.53,0,0,1-2.56.08,9,9,0,0,0-2.07.08c-.57.1-.78.35-.77.9a1.42,1.42,0,0,0,1.47,1.59q2.19.25,4.38.45a5.85,5.85,0,0,1,1.89.48,1.51,1.51,0,0,1,1,1.19,14,14,0,0,1,.1,4.74c-.05.2-.08.4-.14.6a2.07,2.07,0,0,1-1.66,1.6,19.2,19.2,0,0,1-3.38.45c-1.92.06-3.83-.13-5.75-.26a7.3,7.3,0,0,1-1.44-.27,3.82,3.82,0,0,1-2.73-2.4,9.22,9.22,0,0,1-.61-2.36c-.16-1.62-.32-3.25-.46-4.87-.32-3.61-.63-7.23-.93-10.84q-.48-5.85-.92-11.71a9.57,9.57,0,0,1,.08-2.07,4.83,4.83,0,0,1,2.25-3.61A19.72,19.72,0,0,1,245.84,49a23.67,23.67,0,0,1,7.41-.45,6,6,0,0,1,1.9.43,2.49,2.49,0,0,1,1.48,1.53,11.59,11.59,0,0,1,.68,3.59C257.32,55.28,257.31,56.5,257.31,57.26Z"/><path class="cls-1" d="M37.59,55.28c0,.29,0,.86-.11,1.42-.41,3.27-.83,6.54-1.5,9.78-.5,2.47-.89,5-1.41,7.44-.94,4.42-1.65,8.88-2.49,13.32-.13.72-.3,1.43-.47,2.15a2.06,2.06,0,0,1-2,1.68,7.62,7.62,0,0,1-2.43-.13,2.49,2.49,0,0,1-2-1.77,18.51,18.51,0,0,1-.65-2.86c-.41-2.32-.78-4.65-1.17-7q-1-6-2.35-12c-.52-2.3-1-4.62-1.26-7a18.64,18.64,0,0,1-.11-3.17,5.14,5.14,0,0,1,3.06-4.64A12.3,12.3,0,0,1,25,51.68a60.44,60.44,0,0,1,7.3-1.46,7.91,7.91,0,0,1,2.91.21,2.77,2.77,0,0,1,2,1.91A9.3,9.3,0,0,1,37.59,55.28Z"/><path class="cls-1" d="M163.61,60.51a60.85,60.85,0,0,1-.43,6.4c-.2,2-.4,3.9-.58,5.84-.41,4.55-.81,9.09-1.24,13.64a24.27,24.27,0,0,1-.45,2.64,3.36,3.36,0,0,1-.35.91,1,1,0,0,1-.88.58,9.62,9.62,0,0,1-2.68,0,2.74,2.74,0,0,1-2.33-2.07c-.33-1.34-.63-2.69-.89-4-1-4.88-1.61-9.8-2.26-14.73-.44-3.36-.74-6.72-1-10.1-.11-1.54-.37-3.07-.56-4.61-.08-.64-.17-1.29-.21-1.94a5.39,5.39,0,0,1,.1-1.33,2.17,2.17,0,0,1,2.18-1.77,20.57,20.57,0,0,1,4.35.63,28.58,28.58,0,0,1,3.17.88,5.23,5.23,0,0,1,3.71,4.43A31.28,31.28,0,0,1,163.61,60.51Z"/></g></g></svg>