<svg xmlns="http://www.w3.org/2000/svg" viewBox="0 0 237 102"><defs><style>.cls-1{fill:#fff;opacity:0.6;}</style></defs><g id="Layer_2" data-name="Layer 2"><g id="Layer_2-2" data-name="Layer 2"><path class="cls-1" d="M237,82.13c0-5.36-12.61-10.21-33.12-13.79A21.75,21.75,0,0,0,178.27,41a51,51,0,0,0-98.84-4.79,30,30,0,0,0-44.93,26A30.32,30.32,0,0,0,35.06,68C13.41,71.61,0,76.61,0,82.13,0,93.1,53.05,102,118.5,102q4,0,8,0c.6,0,1.2,0,1.8,0,1.13,0,2.24,0,3.35-.12C190.88,100.79,237,92.36,237,82.13Z"/></g></g></svg>