<svg xmlns="http://www.w3.org/2000/svg" viewBox="0 0 126 54.23"><defs><style>.cls-1{fill:#fff;opacity:0.4;}</style></defs><g id="Layer_2" data-name="Layer 2"><g id="Layer_2-2" data-name="Layer 2"><path class="cls-1" d="M126,43.66c0-2.84-6.71-5.43-17.61-7.33A11.55,11.55,0,0,0,94.78,21.81a27.12,27.12,0,0,0-52.55-2.55A16,16,0,0,0,18.34,33.09a16.31,16.31,0,0,0,.3,3.07C7.13,38.07,0,40.73,0,43.66,0,49.5,28.21,54.23,63,54.23q2.13,0,4.23,0c.31,0,.63,0,1,0,.6,0,1.19,0,1.78-.07C101.48,53.58,126,49.1,126,43.66Z"/></g></g></svg>